<?xml version="1.0" encoding="utf-8"?>
<!-- Generator: Adobe Illustrator 24.0.0, SVG Export Plug-In . SVG Version: 6.00 Build 0)  -->
<svg version="1.1" xmlns="http://www.w3.org/2000/svg" xmlns:xlink="http://www.w3.org/1999/xlink" x="0px" y="0px"
	 viewBox="0 0 256 256" enable-background="new 0 0 256 256" xml:space="preserve">
<g id="Layer_1">
</g>
<g id="Layer_2">
</g>
<g id="Layer_3">
</g>
<g id="Layer_4">
</g>
<g id="Layer_5">
</g>
<g id="Layer_6">
</g>
<g id="Layer_7">
</g>
<g id="Layer_8">
</g>
<g id="Layer_9">
</g>
<g id="Layer_10">
</g>
<g id="Layer_11">
</g>
<g id="Layer_12">
</g>
<g id="Layer_13">
</g>
<g id="Layer_14">
</g>
<g id="Layer_15">
</g>
<g id="Layer_16">
</g>
<g id="Layer_17">
</g>
<g id="Layer_18">
</g>
<g id="Layer_19">
</g>
<g id="Layer_20">
</g>
<g id="Layer_21">
</g>
<g id="Layer_22">
</g>
<g id="Layer_23">
</g>
<g id="Layer_24">
</g>
<g id="Layer_25">
</g>
<g id="Layer_26">
</g>
<g id="Layer_27">
</g>
<g id="Layer_28">
</g>
<g id="Layer_29">
</g>
<g id="Layer_30">
</g>
<g id="Layer_31">
</g>
<g id="Layer_32">
</g>
<g id="Layer_33">
</g>
<g id="Layer_34">
</g>
<g id="Layer_35">
</g>
<g id="Layer_36">
</g>
<g id="Layer_37">
</g>
<g id="Layer_38">
</g>
<g id="Layer_39">
</g>
<g id="Layer_40">
</g>
<g id="Layer_41">
</g>
<g id="Layer_42">
</g>
<g id="Layer_43">
</g>
<g id="Layer_44">
</g>
<g id="Layer_45">
</g>
<g id="Layer_46">
</g>
<g id="Layer_47">
</g>
<g id="Layer_48">
</g>
<g id="Layer_49">
</g>
<g id="Layer_50">
</g>
<g id="Layer_51">
</g>
<g id="Layer_52">
</g>
<g id="Layer_53">
</g>
<g id="Layer_54">
</g>
<g id="Layer_55">
</g>
<g id="Layer_56">
</g>
<g id="Layer_57">
</g>
<g id="Layer_58">
</g>
<g id="Layer_59">
</g>
<g id="Layer_60">
	<g>
		<g>
			<g>
				<path fill="#70D6F9" d="M91.271,12.149c-49.026,0-88.77,39.744-88.77,88.77c0,48.464,38.838,87.851,87.087,88.749v-60.144
					c0-2.713,2.22-4.933,4.933-4.933h82.324c2.08-7.537,3.197-15.474,3.197-23.672C180.041,51.893,140.297,12.149,91.271,12.149z"/>
			</g>
		</g>
		<g>
			<g>
				<path fill="#EDF4FC" d="M91.271,27.485c-40.492,0-73.434,32.942-73.434,73.434c0,39.928,32.036,72.491,71.751,73.392v-44.787
					c0-2.713,2.22-4.933,4.933-4.933h66.248c2.539-7.433,3.937-15.39,3.937-23.672C164.705,60.427,131.763,27.485,91.271,27.485z"/>
			</g>
		</g>
		<g>
			<g>
				<path fill="#F5C84C" d="M91.271,91.282c-5.314,0-9.637,4.323-9.637,9.637s4.323,9.637,9.637,9.637s9.637-4.323,9.637-9.637
					S96.585,91.282,91.271,91.282z"/>
			</g>
		</g>
		<g>
			<g>
				<path fill="#5290DB" d="M136.594,95.021H98.875c1.269,1.632,2.033,3.676,2.033,5.898s-0.764,4.266-2.033,5.898h37.718
					c3.258,0,5.898-2.64,5.898-5.898C142.492,97.662,139.851,95.021,136.594,95.021z"/>
			</g>
		</g>
		<g>
			<g>
				<path fill="#5290DB" d="M91.271,49.698c-3.258,0-5.898,2.64-5.898,5.898v37.719c1.632-1.269,3.676-2.033,5.898-2.033
					s4.266,0.764,5.898,2.033V55.597C97.169,52.339,94.529,49.698,91.271,49.698z"/>
			</g>
		</g>
		<g>
			<g>
				<path fill="#FC657E" d="M91.271,27.485v22.213c3.258,0,5.898,2.64,5.898,5.898v37.719c0.638,0.496,1.21,1.068,1.706,1.706
					h37.718c3.258,0,5.898,2.64,5.898,5.898c0,0.003-0.001,0.005-0.001,0.008h22.214c0-0.003,0-0.006,0-0.008
					C164.705,60.427,131.763,27.485,91.271,27.485z"/>
			</g>
		</g>
		<g>
			<g>
				<path d="M91.271,9.649c-50.326,0-91.27,40.943-91.27,91.271c0,23.95,9.208,46.581,25.929,63.724
					c16.688,17.11,39.021,26.882,62.88,27.514c0.022,0.001,0.045,0.001,0.067,0.001c1.351,0,2.462-1.076,2.498-2.434
					c0.037-1.381-1.053-2.529-2.433-2.565c-22.551-0.598-43.658-9.834-59.434-26.007C13.705,144.949,5.001,123.559,5.001,100.92
					c0-47.569,38.7-86.271,86.27-86.271s86.271,38.701,86.271,86.271c0,7.558-0.978,15.054-2.905,22.282
					c-0.355,1.335,0.438,2.704,1.771,3.061c1.329,0.355,2.704-0.438,3.061-1.771c2.039-7.648,3.073-15.579,3.073-23.571
					C182.541,50.593,141.598,9.649,91.271,9.649z"/>
			</g>
		</g>
		<g>
			<g>
				<path d="M91.271,24.985c-41.87,0-75.935,34.064-75.935,75.935c0,19.854,7.642,38.646,21.519,52.912
					c13.848,14.237,32.362,22.401,52.135,22.988c0.025,0.001,0.051,0.001,0.075,0.001c1.347,0,2.458-1.071,2.498-2.426
					c0.041-1.38-1.045-2.532-2.425-2.573c-18.467-0.548-35.762-8.175-48.699-21.477c-12.963-13.328-20.103-30.881-20.103-49.426
					c0-39.113,31.821-70.935,70.935-70.935s70.935,31.821,70.935,70.935c0,7.529-1.179,14.944-3.504,22.039
					c-0.43,1.312,0.285,2.724,1.598,3.154c1.315,0.428,2.725-0.285,3.154-1.598c2.489-7.599,3.752-15.537,3.752-23.596
					C167.205,59.05,133.141,24.985,91.271,24.985z"/>
			</g>
		</g>
		<g>
			<g>
				<path d="M91.271,26.165c-1.381,0-2.5,1.119-2.5,2.5v8.258c0,1.381,1.119,2.5,2.5,2.5s2.5-1.119,2.5-2.5v-8.258
					C93.771,27.284,92.651,26.165,91.271,26.165z"/>
			</g>
		</g>
		<g>
			<g>
				<path d="M61.438,44.246l-4.129-7.151c-0.69-1.196-2.222-1.605-3.415-0.915c-1.195,0.69-1.605,2.22-0.915,3.415l4.129,7.151
					c0.463,0.802,1.304,1.25,2.167,1.25c0.425,0,0.854-0.107,1.248-0.335C61.718,46.971,62.128,45.441,61.438,44.246z"/>
			</g>
		</g>
		<g>
			<g>
				<path d="M37.098,66.756l-7.151-4.129c-1.193-0.69-2.725-0.281-3.415,0.915c-0.69,1.195-0.28,2.725,0.915,3.415l7.151,4.129
					c0.394,0.228,0.823,0.335,1.248,0.335c0.863,0,1.704-0.448,2.167-1.25C38.703,68.976,38.293,67.446,37.098,66.756z"/>
			</g>
		</g>
		<g>
			<g>
				<path d="M27.273,98.42h-8.258c-1.381,0-2.5,1.119-2.5,2.5s1.119,2.5,2.5,2.5h8.258c1.381,0,2.5-1.119,2.5-2.5
					S28.654,98.42,27.273,98.42z"/>
			</g>
		</g>
		<g>
			<g>
				<path d="M163.525,98.42h-8.258c-1.381,0-2.5,1.119-2.5,2.5s1.119,2.5,2.5,2.5h8.258c1.381,0,2.5-1.119,2.5-2.5
					S164.906,98.42,163.525,98.42z"/>
			</g>
		</g>
		<g>
			<g>
				<path d="M38.013,131.668c-0.69-1.196-2.223-1.605-3.415-0.915l-7.151,4.129c-1.195,0.69-1.605,2.22-0.915,3.415
					c0.463,0.802,1.304,1.25,2.167,1.25c0.425,0,0.854-0.107,1.248-0.335l7.151-4.129C38.293,134.393,38.703,132.863,38.013,131.668
					z"/>
			</g>
		</g>
		<g>
			<g>
				<path d="M156.01,63.542c-0.69-1.196-2.222-1.605-3.415-0.915l-7.151,4.129c-1.195,0.69-1.605,2.22-0.915,3.415
					c0.463,0.802,1.304,1.25,2.167,1.25c0.425,0,0.854-0.107,1.248-0.335l7.151-4.129C156.29,66.267,156.7,64.737,156.01,63.542z"/>
			</g>
		</g>
		<g>
			<g>
				<path d="M60.522,154.178c-1.192-0.689-2.725-0.28-3.415,0.915l-4.129,7.151c-0.69,1.195-0.28,2.725,0.915,3.415
					c0.394,0.228,0.823,0.335,1.248,0.335c0.863,0,1.704-0.448,2.167-1.25l4.129-7.151
					C62.128,156.397,61.718,154.868,60.522,154.178z"/>
			</g>
		</g>
		<g>
			<g>
				<path d="M128.648,36.18c-1.193-0.69-2.725-0.281-3.415,0.915l-4.129,7.151c-0.69,1.195-0.28,2.725,0.915,3.415
					c0.394,0.228,0.823,0.335,1.248,0.335c0.863,0,1.704-0.448,2.167-1.25l4.129-7.151C130.254,38.399,129.844,36.87,128.648,36.18z
					"/>
			</g>
		</g>
		<g>
			<g>
				<g>
					<g>
						<path d="M91.271,88.782c-6.692,0-12.137,5.445-12.137,12.138s5.444,12.137,12.137,12.137s12.138-5.444,12.138-12.137
							S97.963,88.782,91.271,88.782z M91.271,108.057c-3.936,0-7.137-3.201-7.137-7.137s3.201-7.138,7.137-7.138
							s7.138,3.202,7.138,7.138S95.206,108.057,91.271,108.057z"/>
					</g>
				</g>
			</g>
		</g>
		<g>
			<g>
				<path d="M136.594,92.521H99.938c-1.381,0-2.5,1.119-2.5,2.5s1.119,2.5,2.5,2.5h36.656c1.874,0,3.398,1.524,3.398,3.398
					s-1.524,3.398-3.398,3.398H99.656c-1.381,0-2.5,1.119-2.5,2.5s1.119,2.5,2.5,2.5h36.938c4.631,0,8.398-3.768,8.398-8.398
					S141.225,92.521,136.594,92.521z"/>
			</g>
		</g>
		<g>
			<g>
				<path d="M91.271,47.198c-4.631,0-8.398,3.768-8.398,8.398v37.625c0,1.381,1.119,2.5,2.5,2.5s2.5-1.119,2.5-2.5V55.597
					c0-1.874,1.524-3.398,3.398-3.398s3.398,1.524,3.398,3.398v37.562c0,1.381,1.119,2.5,2.5,2.5s2.5-1.119,2.5-2.5V55.597
					C99.669,50.966,95.901,47.198,91.271,47.198z"/>
			</g>
		</g>
		<g>
			<g>
				<path fill="#87D147" d="M248.567,124.592H94.52c-2.713,0-4.933,2.22-4.933,4.933v88.093c0,2.713,2.22,4.933,4.933,4.933h154.047
					c2.713,0,4.933-2.22,4.933-4.933v-88.094C253.499,126.812,251.28,124.592,248.567,124.592z"/>
			</g>
		</g>
		<g>
			<g>
				<path fill="#B2E26D" d="M242.354,152.618c-8.081-2.428-14.452-8.799-16.881-16.88c-0.259-0.863-1.06-1.447-1.96-1.447H119.574
					c-0.901,0-1.701,0.584-1.96,1.447c-2.428,8.081-8.799,14.452-16.88,16.88c-0.862,0.259-1.447,1.059-1.447,1.96v37.986
					c0,0.9,0.585,1.701,1.447,1.96c8.081,2.429,14.452,8.799,16.88,16.88c0.259,0.862,1.06,1.447,1.96,1.447h103.939
					c0.901,0,1.701-0.585,1.96-1.447c2.428-8.082,8.799-14.452,16.881-16.88c0.863-0.259,1.447-1.06,1.447-1.96v-37.986
					C243.801,153.678,243.216,152.877,242.354,152.618z"/>
			</g>
		</g>
		<g>
			<g>
				
					<ellipse transform="matrix(0.9239 -0.3827 0.3827 0.9239 -53.3651 78.8593)" fill="#87D147" cx="171.543" cy="173.572" rx="27.642" ry="27.642"/>
			</g>
		</g>
		<g>
			<g>
				<path d="M174.92,171.071h-6.754c-1.983,0-3.598-1.614-3.598-3.598s1.614-3.598,3.598-3.598h9.572c1.381,0,2.5-1.119,2.5-2.5
					s-1.119-2.5-2.5-2.5h-9.572c-4.741,0-8.598,3.856-8.598,8.598s3.856,8.598,8.598,8.598h6.754c1.984,0,3.599,1.614,3.599,3.599
					c0,1.983-1.614,3.598-3.599,3.598h-10.802c-1.381,0-2.5,1.119-2.5,2.5s1.119,2.5,2.5,2.5h10.802
					c4.741,0,8.599-3.856,8.599-8.598S179.661,171.071,174.92,171.071z"/>
			</g>
		</g>
		<g>
			<g>
				<path d="M171.543,154.704c-1.381,0-2.5,1.119-2.5,2.5v32.735c0,1.381,1.119,2.5,2.5,2.5s2.5-1.119,2.5-2.5v-32.735
					C174.043,155.823,172.924,154.704,171.543,154.704z"/>
			</g>
		</g>
		<g>
			<g>
				<g>
					<g>
						<path d="M248.566,122.092H94.521c-4.099,0-7.434,3.335-7.434,7.434v88.093c0,4.099,3.335,7.434,7.434,7.434h154.046
							c4.099,0,7.433-3.335,7.433-7.434v-88.094C255.999,125.426,252.665,122.092,248.566,122.092z M250.999,217.618
							c0,1.342-1.091,2.434-2.433,2.434H94.521c-1.342,0-2.434-1.092-2.434-2.434v-88.093c0-1.342,1.092-2.434,2.434-2.434h154.046
							c1.342,0,2.433,1.091,2.433,2.433V217.618z"/>
					</g>
				</g>
			</g>
		</g>
		<g>
			<g>
				<path d="M128.868,171.071h-5.819c-1.381,0-2.5,1.119-2.5,2.5s1.119,2.5,2.5,2.5h5.819c1.381,0,2.5-1.119,2.5-2.5
					S130.249,171.071,128.868,171.071z"/>
			</g>
		</g>
		<g>
			<g>
				<path d="M220.038,171.071h-5.819c-1.381,0-2.5,1.119-2.5,2.5s1.119,2.5,2.5,2.5h5.819c1.381,0,2.5-1.119,2.5-2.5
					S221.419,171.071,220.038,171.071z"/>
			</g>
		</g>
		<g>
			<g>
				<g>
					<g>
						<path d="M243.072,150.224c-7.32-2.199-13.005-7.884-15.205-15.203c-0.569-1.901-2.36-3.229-4.354-3.229H119.573
							c-2.023,0-3.773,1.297-4.354,3.228c-2.2,7.321-7.884,13.005-15.204,15.205c-1.9,0.57-3.229,2.361-3.229,4.354v37.986
							c0,1.993,1.328,3.784,3.228,4.354c7.321,2.2,13.006,7.885,15.206,15.207c0.581,1.93,2.331,3.227,4.354,3.227h103.939
							c1.993,0,3.784-1.328,4.354-3.228c2.2-7.321,7.885-13.006,15.205-15.206c1.9-0.57,3.229-2.361,3.229-4.354v-37.986
							C246.301,152.585,244.973,150.794,243.072,150.224z M241.301,192.232c-8.662,2.721-15.398,9.458-18.12,18.12H119.905
							c-2.72-8.662-9.456-15.398-18.119-18.12V154.91c8.662-2.721,15.398-9.458,18.119-18.119h103.275
							c2.722,8.663,9.458,15.399,18.12,18.119V192.232z"/>
					</g>
				</g>
			</g>
		</g>
		<g>
			<g>
				<g>
					<g>
						<path d="M171.543,143.43c-16.62,0-30.142,13.521-30.142,30.142c0,16.621,13.521,30.143,30.142,30.143
							c16.621,0,30.143-13.521,30.143-30.143C201.686,156.951,188.164,143.43,171.543,143.43z M171.543,198.714
							c-13.863,0-25.142-11.279-25.142-25.143s11.278-25.142,25.142-25.142s25.143,11.278,25.143,25.142
							S185.406,198.714,171.543,198.714z"/>
					</g>
				</g>
			</g>
		</g>
		<g>
			<g>
				<path fill="#F5C84C" d="M220.227,92.375c-4.5-0.8-8-4.3-8.9-8.7c0-0.2-0.4-0.2-0.4,0c-0.9,4.4-4.4,7.9-8.9,8.7
					c-0.2,0-0.2,0.3,0,0.4c4.5,0.8,8,4.3,8.9,8.7c0,0.2,0.4,0.2,0.4,0c0.9-4.4,4.4-7.9,8.9-8.7
					C220.427,92.676,220.427,92.375,220.227,92.375z"/>
			</g>
		</g>
		<g>
			<g>
				<path fill="#70D6F9" d="M147.575,239.796c-3.189-0.567-5.669-3.047-6.306-6.165c0-0.142-0.283-0.142-0.283,0
					c-0.638,3.118-3.118,5.598-6.306,6.165c-0.142,0-0.142,0.212,0,0.283c3.189,0.567,5.669,3.047,6.306,6.165
					c0,0.142,0.283,0.142,0.283,0c0.638-3.118,3.118-5.598,6.306-6.165C147.716,240.009,147.716,239.796,147.575,239.796z"/>
			</g>
		</g>
		<g>
			<g>
				<path fill="#FC657E" d="M49.514,195.7h-2.3v-2.3c0-1.8-1.4-3.2-3.2-3.2c-1.8,0-3.2,1.5-3.2,3.2v2.3h-2.3c-1.8,0-3.2,1.4-3.2,3.2
					c0,1.8,1.5,3.2,3.2,3.2h2.3v2.3c0,1.8,1.4,3.2,3.2,3.2c1.8,0,3.2-1.5,3.2-3.2v-2.3h2.3c1.8,0,3.2-1.4,3.2-3.2
					C52.714,197.101,51.214,195.7,49.514,195.7z"/>
			</g>
		</g>
		<g>
			<g>
				<path fill="#87D147" d="M195.127,65.5c-1.878,0-3.4,1.522-3.4,3.4c0,1.878,1.522,3.4,3.4,3.4s3.4-1.522,3.4-3.4
					C198.527,67.023,197.004,65.5,195.127,65.5z"/>
			</g>
		</g>
		<g>
			<g>
				<path fill="#F5C84C" d="M68.914,207.176c-1.878,0-3.4,1.522-3.4,3.4s1.522,3.4,3.4,3.4s3.4-1.522,3.4-3.4
					S70.792,207.176,68.914,207.176z"/>
			</g>
		</g>
	</g>
</g>
<g id="Layer_61">
</g>
<g id="Layer_62">
</g>
<g id="Layer_63">
</g>
<g id="Layer_64">
</g>
<g id="Layer_65">
</g>
<g id="Layer_66">
</g>
<g id="Layer_67">
</g>
<g id="Layer_68">
</g>
<g id="Layer_69">
</g>
<g id="Layer_70">
</g>
<g id="Layer_71">
</g>
<g id="Layer_72">
</g>
<g id="Layer_73">
</g>
<g id="Layer_74">
</g>
<g id="Layer_75">
</g>
</svg>
